M48
METRIC
T1C0.400
T2C0.401
T3C1.000
T4C1.400
T5C1.600
%
G90
G05
T1
X109.22Y-91.44
X109.22Y-96.52
X109.22Y-118.745
X109.22Y-121.92
X146.685Y-85.725
X149.225Y-85.725
X151.13Y-71.12
X151.13Y-76.12
X157.48Y-93.98
X157.48Y-96.52
X157.48Y-99.06
X157.48Y-101.6
X157.48Y-104.14
X157.48Y-106.68
X157.48Y-109.22
X157.48Y-111.76
X157.48Y-114.3
X157.48Y-116.84
X157.48Y-119.38
X157.48Y-121.92
X157.48Y-124.46
X157.48Y-127.0
X157.48Y-129.54
X157.48Y-132.08
X157.48Y-134.62
X157.48Y-137.16
X157.48Y-139.7
X157.48Y-142.24
X157.48Y-144.78
X157.48Y-147.32
X157.48Y-149.86
X157.48Y-152.4
X157.48Y-154.94
X160.02Y-93.98
X160.02Y-96.52
X160.02Y-99.06
X160.02Y-101.6
X160.02Y-104.14
X160.02Y-106.68
X160.02Y-109.22
X160.02Y-111.76
X160.02Y-114.3
X160.02Y-116.84
X160.02Y-119.38
X160.02Y-121.92
X160.02Y-124.46
X160.02Y-127.0
X160.02Y-129.54
X160.02Y-132.08
X160.02Y-134.62
X160.02Y-137.16
X160.02Y-139.7
X160.02Y-142.24
X160.02Y-144.78
X160.02Y-147.32
X160.02Y-149.86
X160.02Y-152.4
X160.02Y-154.94
X111.76Y-93.98
X111.76Y-96.52
X111.76Y-99.06
X111.76Y-101.6
X111.76Y-104.14
X111.76Y-106.68
X111.76Y-109.22
X111.76Y-111.76
X111.76Y-114.3
X111.76Y-116.84
X111.76Y-119.38
X111.76Y-121.92
X111.76Y-124.46
X111.76Y-127.0
X111.76Y-129.54
X111.76Y-132.08
X111.76Y-134.62
X111.76Y-137.16
X111.76Y-139.7
X111.76Y-142.24
X111.76Y-144.78
X111.76Y-147.32
X111.76Y-149.86
X111.76Y-152.4
X111.76Y-154.94
X114.3Y-93.98
X114.3Y-96.52
X114.3Y-99.06
X114.3Y-101.6
X114.3Y-104.14
X114.3Y-106.68
X114.3Y-109.22
X114.3Y-111.76
X114.3Y-114.3
X114.3Y-116.84
X114.3Y-119.38
X114.3Y-121.92
X114.3Y-124.46
X114.3Y-127.0
X114.3Y-129.54
X114.3Y-132.08
X114.3Y-134.62
X114.3Y-137.16
X114.3Y-139.7
X114.3Y-142.24
X114.3Y-144.78
X114.3Y-147.32
X114.3Y-149.86
X114.3Y-152.4
X114.3Y-154.94
X162.56Y-72.295
X162.56Y-74.295
X127.0Y-93.98
X127.0Y-96.52
X127.0Y-99.06
X127.0Y-101.6
X127.0Y-104.14
X127.0Y-106.68
X127.0Y-109.22
X127.0Y-111.76
X127.0Y-114.3
X127.0Y-116.84
X127.0Y-119.38
X127.0Y-121.92
X127.0Y-124.46
X127.0Y-127.0
X127.0Y-129.54
X127.0Y-132.08
X127.0Y-134.62
X127.0Y-137.16
X127.0Y-139.7
X127.0Y-142.24
X127.0Y-144.78
X127.0Y-147.32
X127.0Y-149.86
X127.0Y-152.4
X127.0Y-154.94
X129.54Y-93.98
X129.54Y-96.52
X129.54Y-99.06
X129.54Y-101.6
X129.54Y-104.14
X129.54Y-106.68
X129.54Y-109.22
X129.54Y-111.76
X129.54Y-114.3
X129.54Y-116.84
X129.54Y-119.38
X129.54Y-121.92
X129.54Y-124.46
X129.54Y-127.0
X129.54Y-129.54
X129.54Y-132.08
X129.54Y-134.62
X129.54Y-137.16
X129.54Y-139.7
X129.54Y-142.24
X129.54Y-144.78
X129.54Y-147.32
X129.54Y-149.86
X129.54Y-152.4
X129.54Y-154.94
X142.24Y-93.98
X142.24Y-96.52
X142.24Y-99.06
X142.24Y-101.6
X142.24Y-104.14
X142.24Y-106.68
X142.24Y-109.22
X142.24Y-111.76
X142.24Y-114.3
X142.24Y-116.84
X142.24Y-119.38
X142.24Y-121.92
X142.24Y-124.46
X142.24Y-127.0
X142.24Y-129.54
X142.24Y-132.08
X142.24Y-134.62
X142.24Y-137.16
X142.24Y-139.7
X142.24Y-142.24
X142.24Y-144.78
X142.24Y-147.32
X142.24Y-149.86
X142.24Y-152.4
X142.24Y-154.94
X144.78Y-93.98
X144.78Y-96.52
X144.78Y-99.06
X144.78Y-101.6
X144.78Y-104.14
X144.78Y-106.68
X144.78Y-109.22
X144.78Y-111.76
X144.78Y-114.3
X144.78Y-116.84
X144.78Y-119.38
X144.78Y-121.92
X144.78Y-124.46
X144.78Y-127.0
X144.78Y-129.54
X144.78Y-132.08
X144.78Y-134.62
X144.78Y-137.16
X144.78Y-139.7
X144.78Y-142.24
X144.78Y-144.78
X144.78Y-147.32
X144.78Y-149.86
X144.78Y-152.4
X144.78Y-154.94
X172.72Y-93.9
X172.72Y-96.44
X172.72Y-98.98
X172.72Y-101.52
X172.72Y-104.06
X172.72Y-106.6
X172.72Y-109.14
X172.72Y-111.68
X172.72Y-114.22
X172.72Y-116.76
X172.72Y-119.3
X172.72Y-121.84
X172.72Y-124.38
X172.72Y-126.92
X172.72Y-129.46
X172.72Y-132.0
X172.72Y-134.54
X172.72Y-137.08
X172.72Y-139.62
X172.72Y-142.16
X172.72Y-144.7
X172.72Y-147.24
X172.72Y-149.78
X172.72Y-152.32
X172.72Y-154.86
X175.26Y-93.9
X175.26Y-96.44
X175.26Y-98.98
X175.26Y-101.52
X175.26Y-104.06
X175.26Y-106.6
X175.26Y-109.14
X175.26Y-111.68
X175.26Y-114.22
X175.26Y-116.76
X175.26Y-119.3
X175.26Y-121.84
X175.26Y-124.38
X175.26Y-126.92
X175.26Y-129.46
X175.26Y-132.0
X175.26Y-134.54
X175.26Y-137.08
X175.26Y-139.62
X175.26Y-142.16
X175.26Y-144.7
X175.26Y-147.24
X175.26Y-149.78
X175.26Y-152.32
X175.26Y-154.86
T2
X111.77Y-80.645
X119.38Y-80.645
T4
X155.575Y-85.725
X175.895Y-85.725
T5
X175.895Y-74.405
T3
G00X171.395Y-71.655
M15
G01X171.395Y-73.155
M16
G05
G00X174.895Y-65.405
M15
G01X176.895Y-65.405
M16
G05
G00X175.245Y-71.405
M15
G01X176.545Y-71.405
M16
G05
G00X180.395Y-71.655
M15
G01X180.395Y-73.155
M16
G05
T0
M30
